<?xml version="1.0" encoding="utf-8"?>
<!-- Generator: Adobe Illustrator 24.3.0, SVG Export Plug-In . SVG Version: 6.00 Build 0)  -->
<svg version="1.1" id="Layer_1" xmlns="http://www.w3.org/2000/svg" xmlns:xlink="http://www.w3.org/1999/xlink" x="0px" y="0px"
	 viewBox="0 0 200 200" style="enable-background:new 0 0 200 200;" xml:space="preserve">
<style type="text/css">
	.st0{fill-rule:evenodd;clip-rule:evenodd;fill:#FFFFFF;}
	.st1{fill-rule:evenodd;clip-rule:evenodd;fill:#03A9F4;}
	.st2{fill-rule:evenodd;clip-rule:evenodd;fill:#7F97AB;}
	.st3{clip-path:url(#SVGID_2_);enable-background:new    ;}
	.st4{clip-path:url(#SVGID_4_);}
	.st5{clip-path:url(#SVGID_6_);}
	.st6{clip-path:url(#SVGID_8_);fill:#FFFFFF;}
	.st7{clip-path:url(#SVGID_10_);}
	.st8{clip-path:url(#SVGID_12_);fill:#FFFFFF;}
	.st9{clip-path:url(#SVGID_14_);enable-background:new    ;}
	.st10{clip-path:url(#SVGID_16_);}
	.st11{clip-path:url(#SVGID_18_);}
	.st12{clip-path:url(#SVGID_20_);fill:#03A9F4;}
	.st13{clip-path:url(#SVGID_22_);}
	.st14{clip-path:url(#SVGID_24_);fill:#03A9F4;}
	.st15{clip-path:url(#SVGID_26_);enable-background:new    ;}
	.st16{clip-path:url(#SVGID_28_);}
	.st17{clip-path:url(#SVGID_30_);}
	.st18{clip-path:url(#SVGID_32_);fill:#7F97AB;}
	.st19{clip-path:url(#SVGID_34_);}
	.st20{clip-path:url(#SVGID_36_);fill:#7F97AB;}
</style>
<path class="st0" d="M103.8,123.9l-12-44.8c-9.2-3.9-18.7-7.2-28.5-10C58.7,73,53.7,78,48.9,83.3c-4.8,5.3-9.3,11-12.9,16.4
	c-0.1,0.2-0.3,0.3-0.4,0.5c1.6,10.7,4.5,21.5,8.7,32.5c0.2,0,0.4,0.1,0.6,0.2c5.8,3.1,12.8,5.9,19.8,8.1c6.5,2,12.9,3.5,18.5,4.1
	C90.6,137.9,97.6,131.7,103.8,123.9z M31.2,150.4c0.8,3.3,1.8,6.8,3.2,10.4c1.4,3.8,3.4,7.7,6,11.9c0.7,0.5,1.3,1.1,2,1.6
	c11.4,8.9,24.9,15.1,39.4,18c3.7-2.6,7.2-5.6,10.3-8.7c3.1-3.1,5.8-6.4,7.7-9.5c-6.1-7.3-11.9-15.2-16.8-23.9
	c-6-0.6-12.8-2.2-19.7-4.3c-7-2.2-13.9-5-19.8-8L31.2,150.4z M26.1,150.6c-0.1-0.3-0.1-0.6,0-0.9l-12.4-12.5c4,9.2,9.3,17.6,15.8,25
	C28,158.1,27,154.3,26.1,150.6z M11.6,94.2c-0.1-0.1-0.1-0.3-0.2-0.4c-1.5-6.3-2.1-12.6-2-18.8c-3.2,11.6-4.2,24-2.6,36.8l0,0
	c0.1,0.7,0.2,1.4,0.3,2.1C8.2,107.1,9.7,100.6,11.6,94.2z M16.7,56.5c-1.1,5.4-2,11.2-2.2,17.3c-0.2,5.8,0.2,11.7,1.5,17.6
	c5.4,1.9,10.8,3.5,16.3,4.9c3.6-5.4,8.1-11,12.9-16.3c4.9-5.4,10-10.5,14.8-14.6c-0.9-10.6-0.2-20.3,1.9-29.2
	c-2.8-1.2-6.1-2.1-9.4-2.9c-4.3-0.9-8.5-1.5-11.8-1.5c-0.3,0-0.6-0.1-0.9-0.2l-18,16.4C20,50.7,18.3,53.5,16.7,56.5z M95.8,24
	c0,0,0.1-0.1,0.1-0.1c2.6-2.9,6-6.4,9.4-9.5c2.6-2.4,5.3-4.5,7.6-6.2l-1.2-1.3c-7.6-1-15.5-1-23.5,0c-17,2.1-32.3,8.7-45,18.3
	l-0.4,1.6c3.2,0.2,7,0.7,10.7,1.5c4.1,0.9,8.2,2.1,11.5,3.7c0.1,0,0.1,0.1,0.2,0.1C75.2,28.7,85.4,26,95.8,24z M136.3,130.5
	c5-3.5,10.5-8.3,15.7-13.7c4.8-5,9.3-10.5,12.6-15.9c-1.8-11.6-4.6-22.5-8.6-32.6c-5.9-2.5-13.2-5.3-20.5-7.8
	c-6.6-2.2-13.2-4.3-18.9-5.7c-7,7.2-13.6,14.9-19.8,23.1l12,44.7C118.1,126,127.2,128,136.3,130.5z M156.3,175.2
	c-3.2-0.5-6.3-1.1-9.4-2c-5-1.3-9.5-3.1-13.2-5.1c-9,3.5-18.6,6.1-29,7.6l0,0.1c-2.2,3.7-5.3,7.5-8.9,11.2c-2.1,2.2-4.5,4.3-6.9,6.2
	c7.4,0.9,15.1,0.9,22.9-0.1l0,0C128.5,191.1,143.7,184.7,156.3,175.2z M187.9,133.2c0.2-4.9-0.1-9.5-0.8-13.6
	c-0.6-3.8-1.5-7.3-2.5-10.4l-16.5-4.6c-3.4,5.3-7.8,10.6-12.6,15.6c-5.1,5.4-10.7,10.2-15.7,13.9c0.8,10.5,0.5,20.6-1.7,30.6
	c2.9,1.4,6.4,2.6,10.1,3.7c4.3,1.2,9,2,13.5,2.4c4.6-4,8.7-8.4,12.4-13.2C179.9,150.2,184.6,142,187.9,133.2z M188.8,106.1
	c0.1,0.2,0.2,0.4,0.3,0.6c1.2,3.4,2.2,7.4,3,11.8c1.9-9.5,2.4-19.4,1.2-29.5L188.8,106.1z M168.5,50.4c-2.2-5.1-4.9-10.5-8-15.6
	c-3.2-5.3-6.7-10.2-10.2-14.1c-2.8-1.8-5.7-3.4-8.7-4.9l-23.9-5.2c-0.2,0.3-0.5,0.6-0.8,0.8c-2.5,1.6-5.4,4-8.3,6.6
	c-2.8,2.5-5.5,5.3-7.8,7.8c6.6,7.9,11.7,15.8,16.1,23.9c6,1.5,13.1,3.6,20.1,6c7,2.4,13.8,5,19.5,7.4
	C160.7,59,164.7,54.8,168.5,50.4z M164.7,31.9l0.2,0.3c3.6,6,6.8,12.4,9.1,18.3c0.1,0.3,0.2,0.5,0.2,0.8c4.6,4.4,9.1,9.2,13.2,14.3
	C182.3,52.6,174.5,41.2,164.7,31.9z M87.6,1.8c23.8-3,46.8,2.7,65.5,14.7c0.2,0.1,0.3,0.2,0.4,0.3c2.4,1.6,4.8,3.2,7.1,5
	c20,15.5,34,38.6,37.5,65.6c0,0.1,0,0.3,0.1,0.4c3.3,27-4.5,52.9-20,72.9c-4.1,5.2-8.6,10-13.6,14.4c-0.1,0.2-0.3,0.3-0.5,0.4
	c-14.1,12-31.7,20.2-51.5,22.7c-0.1,0-0.3,0-0.4,0.1c-10.3,1.3-20.4,0.9-30-0.9c-0.1,0-0.2,0-0.3-0.1c-15.7-2.9-30.2-9.6-42.5-19.1
	c-0.8-0.6-1.5-1.2-2.3-1.8c-0.1-0.1-0.2-0.2-0.3-0.3c-18.6-15.4-31.6-37.7-34.9-63.5c0-0.1,0-0.3-0.1-0.4
	C-0.8,91.6,3.2,71.8,12,54.7c0-0.1,0.1-0.2,0.2-0.3c2.8-5.3,6-10.3,9.6-15C37.3,19.3,60.5,5.2,87.6,1.8z"/>
</svg>
