<?xml version="1.0" encoding="utf-8"?>
<!-- Generator: Adobe Illustrator 24.3.0, SVG Export Plug-In . SVG Version: 6.00 Build 0)  -->
<svg version="1.1" id="Layer_1" xmlns="http://www.w3.org/2000/svg" xmlns:xlink="http://www.w3.org/1999/xlink" x="0px" y="0px"
	 viewBox="0 0 200 200" style="enable-background:new 0 0 200 200;" xml:space="preserve">
<style type="text/css">
	.st0{fill-rule:evenodd;clip-rule:evenodd;fill:#FFFFFF;}
	.st1{fill-rule:evenodd;clip-rule:evenodd;fill:#03A9F4;}
	.st2{fill-rule:evenodd;clip-rule:evenodd;fill:#7F97AB;}
	.st3{clip-path:url(#SVGID_2_);enable-background:new    ;}
	.st4{clip-path:url(#SVGID_4_);}
	.st5{clip-path:url(#SVGID_6_);}
	.st6{clip-path:url(#SVGID_8_);fill:#FFFFFF;}
	.st7{clip-path:url(#SVGID_10_);}
	.st8{clip-path:url(#SVGID_12_);fill:#FFFFFF;}
	.st9{clip-path:url(#SVGID_14_);enable-background:new    ;}
	.st10{clip-path:url(#SVGID_16_);}
	.st11{clip-path:url(#SVGID_18_);}
	.st12{clip-path:url(#SVGID_20_);fill:#03A9F4;}
	.st13{clip-path:url(#SVGID_22_);}
	.st14{clip-path:url(#SVGID_24_);fill:#03A9F4;}
	.st15{clip-path:url(#SVGID_26_);enable-background:new    ;}
	.st16{clip-path:url(#SVGID_28_);}
	.st17{clip-path:url(#SVGID_30_);}
	.st18{clip-path:url(#SVGID_32_);fill:#7F97AB;}
	.st19{clip-path:url(#SVGID_34_);}
	.st20{clip-path:url(#SVGID_36_);fill:#7F97AB;}
</style>
<path class="st2" d="M129.2,32.7l2.9,0.1c4.9,0.3,10.4,1,15.7,3.1c2.7,1,5.4,2.3,7.8,4.2c2.4,1.8,4.7,4.2,6.1,7.2
	c1.4,2.9,2,6.2,2,9.5c0,3.3-0.7,6.5-1.7,9.7c-2,6.3-5.5,12.1-9.6,17.3c-4.1,5.2-8.9,9.9-14,14c-5.1,4.1-10.4,7.7-15.8,10.7
	c-5.4,3.1-10.8,5.6-16.1,7.7c-5.3,2.1-10.3,3.9-15.1,5.2c-9.5,2.6-17.7,3.7-23.4,4.1c-2.9,0.2-5.1,0.2-6.6,0.2c-1,0-1.7,0-2.1,0
	l-0.3,0c0,0,0.8,0,2.3-0.1c1.5-0.1,3.8-0.2,6.6-0.6c5.6-0.7,13.7-2.1,23-5.1c4.6-1.5,9.6-3.4,14.7-5.6c5.1-2.3,10.4-4.9,15.6-8
	c5.2-3.1,10.3-6.7,15.2-10.8c4.8-4.1,9.4-8.6,13.2-13.7c3.9-5,7.1-10.5,8.9-16.3c1.8-5.7,2.2-11.9-0.1-16.7c-1.1-2.4-3-4.4-5.1-6
	c-2.1-1.7-4.5-2.9-6.9-3.9c-4.9-2-10-3-14.7-3.4c-4.7-0.4-9.2-0.5-13.1-0.2c-3.9,0.2-7.3,0.7-10.2,1.1c-2.8,0.4-5,0.9-6.5,1.1
	c-1.5,0.3-2.3,0.5-2.3,0.5s0.1,0,0.3-0.1l0.8-0.2c0.3-0.1,0.7-0.2,1.2-0.4c1.5-0.5,3.6-1.1,6.4-1.8c2.8-0.7,6.2-1.4,10.2-1.9
	c4-0.5,8.5-0.8,13.5-0.6L129.2,32.7z M136.2,26.7c-19.1-0.8-41.7,4.3-63.6,14.5c-21.9,10.2-40.4,24.2-52,39.4
	C9.4,95.2,6,108.8,10.8,119.2c4.8,10.4,17.5,16.5,35.8,17.3c19.1,0.8,41.7-4.3,63.6-14.5c21.9-10.2,40.4-24.2,52-39.4
	c11.1-14.5,14.6-28.2,9.7-38.6C167.2,33.7,154.5,27.5,136.2,26.7z M180.8,62.8l-0.6,2.3c-2.1,7.1-6,14.5-11.8,22.1
	c-12.4,16.2-31.9,31-54.9,41.7c-23,10.7-46.9,16.1-67.3,15.2c-10.5-0.5-19.5-2.6-26.7-6.2l0,0l8.4,18c4.8,10.4,17.5,16.5,35.8,17.3
	c19.1,0.8,41.7-4.3,63.6-14.5c21.9-10.2,40.4-24.2,52-39.4c11.1-14.5,14.6-28.2,9.7-38.6L180.8,62.8z M133.4,19l3.2,0.1
	c21.2,0.9,36.3,8.7,42.4,21.7l17.1,36.8c6.1,13.1,2.3,29.6-10.6,46.4c-12.4,16.2-31.9,31-54.9,41.7c-23,10.7-46.9,16.1-67.3,15.2
	c-21.2-0.9-36.3-8.7-42.4-21.7L3.8,122.5C-2.2,109.4,1.5,92.9,14.5,76c12.4-16.2,31.9-31,54.9-41.7c23-10.7,46.9-16.1,67.3-15.2
	L133.4,19z"/>
</svg>
