<?xml version="1.0" encoding="utf-8"?>
<!-- Generator: Adobe Illustrator 24.3.0, SVG Export Plug-In . SVG Version: 6.00 Build 0)  -->
<svg version="1.1" id="Layer_1" xmlns="http://www.w3.org/2000/svg" xmlns:xlink="http://www.w3.org/1999/xlink" x="0px" y="0px"
	 viewBox="0 0 200 200" style="enable-background:new 0 0 200 200;" xml:space="preserve">
<style type="text/css">
	.st0{fill-rule:evenodd;clip-rule:evenodd;fill:#FFFFFF;}
	.st1{fill-rule:evenodd;clip-rule:evenodd;fill:#03A9F4;}
	.st2{fill-rule:evenodd;clip-rule:evenodd;fill:#7F97AB;}
	.st3{clip-path:url(#SVGID_2_);enable-background:new    ;}
	.st4{clip-path:url(#SVGID_4_);}
	.st5{clip-path:url(#SVGID_6_);}
	.st6{clip-path:url(#SVGID_8_);fill:#FFFFFF;}
	.st7{clip-path:url(#SVGID_10_);}
	.st8{clip-path:url(#SVGID_12_);fill:#FFFFFF;}
	.st9{clip-path:url(#SVGID_14_);enable-background:new    ;}
	.st10{clip-path:url(#SVGID_16_);}
	.st11{clip-path:url(#SVGID_18_);}
	.st12{clip-path:url(#SVGID_20_);fill:#03A9F4;}
	.st13{clip-path:url(#SVGID_22_);}
	.st14{clip-path:url(#SVGID_24_);fill:#03A9F4;}
	.st15{clip-path:url(#SVGID_26_);enable-background:new    ;}
	.st16{clip-path:url(#SVGID_28_);}
	.st17{clip-path:url(#SVGID_30_);}
	.st18{clip-path:url(#SVGID_32_);fill:#7F97AB;}
	.st19{clip-path:url(#SVGID_34_);}
	.st20{clip-path:url(#SVGID_36_);fill:#7F97AB;}
</style>
<g>
	<path class="st2" d="M183.1,17.8c-1.3-4.1-3.1-7.6-5.8-10.2l-1.9-1.9L142.5,47l42,28.5l0.5-3.9C187.5,51.7,187.3,31.4,183.1,17.8z
		 M180.6,67l-31.1-21.1l26.1-32.7c1.1,1.7,2.1,3.7,2.8,6C182.1,31.1,182.5,49.1,180.6,67z"/>
	<path class="st2" d="M173.6,4.5l-2.8-1.3c-3.4-1.6-7.3-2.2-12-2.1c-16.8,0.4-34.9,5.5-55.5,14.2l-4.1,1.7l41.5,28.4L173.6,4.5z
		 M109.4,18c18.4-7.4,34.7-11.8,49.5-12.1c2.6-0.1,4.8,0.1,6.8,0.6l-25.9,32.3L109.4,18z"/>
	<path class="st2" d="M141.5,48.5l-10.3,13l9.5,6c0.4,0.3,0.5,0.8,0.3,1.1l-0.1,0.1l-0.5,0.7c-0.4,0.5-1.2,0.6-1.7,0.2l-9-6.2
		l-13.9,17.6l9.2,6.4c0.4,0.3,0.5,0.8,0.2,1.2c-0.4,0.5-1.2,0.6-1.7,0.2l-7.1-4.9l-1.9-1.3l-13.9,17.6l9.2,6.4
		c0.4,0.3,0.5,0.8,0.2,1.2c-0.4,0.5-1.2,0.6-1.7,0.2l-7.1-4.9l-1.9-1.3l-13.9,17.6l9.2,6.4c0.4,0.3,0.5,0.8,0.2,1.2
		c-0.4,0.5-1.2,0.6-1.7,0.2l-7.1-4.9l-1.9-1.3l-13.9,17.6l9.2,6.4c0.4,0.3,0.5,0.8,0.2,1.2c-0.4,0.5-1.2,0.6-1.7,0.2l-7.1-4.9
		l-1.9-1.3l-10,12.7l41.3,28.5l2.5,0.2c20.6-10.3,38.5-24.7,52.5-42.5c14-17.8,23.5-38,27.9-59.5l-1-2.5L141.5,48.5z M151.8,135.8
		c-13.3,16.8-30.1,30.5-49.6,40.5l-35.8-24.7l4-5l5.2,3.6c2.6,1.8,6.3,1.3,8.3-1.2c2.1-2.6,1.5-6.3-1.3-8.2l-4.9-3.4l7.8-9.9
		l5.2,3.6c2.6,1.8,6.3,1.3,8.3-1.2c2.1-2.6,1.5-6.3-1.3-8.2l-4.9-3.4l7.8-9.9l5.2,3.6c2.6,1.8,6.3,1.3,8.3-1.2
		c2.1-2.6,1.5-6.3-1.3-8.2l-4.9-3.4l7.8-9.9l5.2,3.6c2.6,1.8,6.3,1.3,8.3-1.2c2.1-2.6,1.5-6.3-1.3-8.2l-5-3.4l7.8-9.9l5.2,3.6
		c2.6,1.8,6.3,1.3,8.3-1.2l0.6-0.7l0,0l0.1-0.1c2-2.7,1.2-6.4-1.6-8.2l-4.9-3.1l4.1-5.2l35.9,24.8C174,100.1,165,119,151.8,135.8z
		 M144.8,71.7L144.8,71.7L144.8,71.7L144.8,71.7z"/>
	<path class="st2" d="M57.6,151.5l10-12.7l-9.2-6.4c-0.4-0.3-0.5-0.8-0.2-1.2c0.4-0.5,1.2-0.6,1.7-0.2l7.1,4.9l1.9,1.3l13.9-17.6
		l-9.2-6.4c-0.4-0.3-0.5-0.8-0.2-1.2c0.4-0.5,1.2-0.6,1.7-0.2l7.1,4.9l1.9,1.3l13.9-17.6l-9.2-6.4c-0.4-0.3-0.5-0.8-0.2-1.2
		c0.4-0.5,1.2-0.6,1.7-0.2l7.1,4.9L99,99l13.9-17.6l-9.2-6.4c-0.4-0.3-0.5-0.8-0.2-1.2c0.4-0.5,1.2-0.6,1.7-0.2l7.1,4.9l1.9,1.3
		L128,62.3l-9.2-6.4c-0.4-0.3-0.5-0.8-0.2-1.2c0.4-0.5,1.2-0.6,1.7-0.2l0.2,0.1l7.2,4.5l1.9,1.2l10.3-13.1L98.5,18.9l-2.5-0.2
		C75.4,29,57.6,43.4,43.5,61.1c-14,17.8-23.5,38-27.9,59.5l1,2.5L57.6,151.5z M47.4,64.2C60.7,47.3,77.5,33.7,97,23.7l35.8,24.7
		l-4.4,5.6l-5.2-3.3l-0.1-0.1c-2.6-1.8-6.3-1.3-8.3,1.2c-2.1,2.6-1.5,6.3,1.3,8.2l4.9,3.4l-7.8,9.9l-5.2-3.6
		c-2.6-1.8-6.3-1.3-8.3,1.2c-2.1,2.6-1.5,6.3,1.3,8.2l5,3.4L98,92.4l-5.2-3.6c-2.6-1.8-6.3-1.3-8.3,1.2c-2.1,2.6-1.5,6.3,1.3,8.2
		l4.9,3.4l-7.8,9.9l-5.2-3.6c-2.6-1.8-6.3-1.3-8.3,1.2c-2.1,2.6-1.5,6.3,1.3,8.2l4.9,3.4l-7.8,9.9l-5.2-3.6
		c-2.6-1.8-6.3-1.3-8.3,1.2c-2.1,2.6-1.5,6.3,1.3,8.2l4.9,3.4l-4,5l-35.9-24.8C25.2,99.9,34.1,80.9,47.4,64.2z"/>
	<path class="st2" d="M25.6,195.5l2.8,1.3c3.6,1.7,7.6,2.4,12,2.1c20.3-1,37.6-5.6,55.5-14.2l3.8-1.8l-41.9-28.8L25.6,195.5z
		 M90,182.2c-16,7.2-31.7,11.1-49.8,11.9c-2.4,0.1-4.7-0.1-6.8-0.6l25.5-32.7L90,182.2z"/>
	<path class="st2" d="M14.8,124.4l-0.4,4.1c-1.7,18-1.4,39.7,1.6,53.4c0.8,3.9,2.9,7.5,5.9,10.4l1.9,1.9l32.4-41L14.8,124.4z
		 M23.5,186.8c-1.3-1.8-2.2-3.8-2.7-5.9c-2.6-12.1-3.2-31.1-1.9-47.7l30.3,21.1L23.5,186.8z"/>
</g>
</svg>
