<?xml version="1.0" encoding="utf-8"?>
<!-- Generator: Adobe Illustrator 24.3.0, SVG Export Plug-In . SVG Version: 6.00 Build 0)  -->
<svg version="1.1" id="Layer_1" xmlns="http://www.w3.org/2000/svg" xmlns:xlink="http://www.w3.org/1999/xlink" x="0px" y="0px"
	 viewBox="0 0 200 200" style="enable-background:new 0 0 200 200;" xml:space="preserve">
<style type="text/css">
	.st0{fill-rule:evenodd;clip-rule:evenodd;fill:#FFFFFF;}
	.st1{fill-rule:evenodd;clip-rule:evenodd;fill:#03A9F4;}
	.st2{fill-rule:evenodd;clip-rule:evenodd;fill:#7F97AB;}
	.st3{clip-path:url(#SVGID_2_);enable-background:new    ;}
	.st4{clip-path:url(#SVGID_4_);}
	.st5{clip-path:url(#SVGID_6_);}
	.st6{clip-path:url(#SVGID_8_);fill:#FFFFFF;}
	.st7{clip-path:url(#SVGID_10_);}
	.st8{clip-path:url(#SVGID_12_);fill:#FFFFFF;}
	.st9{clip-path:url(#SVGID_14_);enable-background:new    ;}
	.st10{clip-path:url(#SVGID_16_);}
	.st11{clip-path:url(#SVGID_18_);}
	.st12{clip-path:url(#SVGID_20_);fill:#03A9F4;}
	.st13{clip-path:url(#SVGID_22_);}
	.st14{clip-path:url(#SVGID_24_);fill:#03A9F4;}
	.st15{clip-path:url(#SVGID_26_);enable-background:new    ;}
	.st16{clip-path:url(#SVGID_28_);}
	.st17{clip-path:url(#SVGID_30_);}
	.st18{clip-path:url(#SVGID_32_);fill:#7F97AB;}
	.st19{clip-path:url(#SVGID_34_);}
	.st20{clip-path:url(#SVGID_36_);fill:#7F97AB;}
</style>
<path class="st2" d="M130.8,7.6l-0.1,0c-21,0.6-45.4,10.6-68.2,31.2c-42,37.8-59,94.9-40.5,128C3.7,115.6,70.3,24.8,130.8,7.6z
	 M134.2,7.6l-1,0.3C71.3,26.6,7.8,134.8,37.6,171.6l0,0l0.1,0.1c0,0,0,0,0,0l0,0c32,35.7,139.7-46,146.4-121.7
	C179.2,22.9,159.5,8.1,134.2,7.6z M184.4,51.8l-0.2,2c-6.5,62.2-71,131.3-118.4,138.6c17.1,0.1,36.6-6.7,56.1-20
	c40.2-27.4,66.8-73,63.1-115.2C184.9,55.3,184.7,53.5,184.4,51.8z M191.6,56.6c3.9,44.8-23.9,92.6-66,121.2
	c-42.5,28.9-86.4,29.3-107.7-5C-4.8,137,12.8,74.6,58.1,33.8C116.1-18.4,186.6-6.5,191.6,56.6z"/>
</svg>
