<?xml version="1.0" encoding="UTF-8"?>
<svg width="24px" height="24px" viewBox="0 0 24 24" version="1.1" xmlns="http://www.w3.org/2000/svg" xmlns:xlink="http://www.w3.org/1999/xlink">
    <!-- Generator: Sketch 61.2 (89653) - https://sketch.com -->
    <title>Cookie Icon Copy</title>
    <desc>Created with Sketch.</desc>
    <defs>
        <path d="M10.5225504,2.20111149 C10.5225504,4.44426108 11.9996924,6.34240566 14.0343231,6.97589186 C13.9972507,7.19489686 13.9778186,7.4204769 13.9778186,7.65059554 C13.9778186,9.85973454 15.7686796,11.6505955 17.9778186,11.6505955 C18.0675299,11.6505955 18.1565513,11.6476422 18.2447911,11.6418275 C18.4530003,13.5815753 19.7415714,15.1986508 21.4969948,15.8797996 C19.9490765,19.6007627 16.2785845,22.2167103 11.9971051,22.2167103 C6.31646196,22.2167103 1.71139082,17.6116391 1.71139082,11.930996 C1.71139082,6.74420119 5.55057955,2.45409696 10.5422658,1.74737455 C10.529384,1.89756644 10.5225504,2.04854093 10.5225504,2.20111149 Z" id="path-1"></path>
    </defs>
    <g id="Cookie-Icon-Copy" stroke="none" stroke-width="1" fill="none" fill-rule="evenodd">
        <g id="Icon-2">
            <mask id="mask-2" fill="white">
                <use xlink:href="#path-1"></use>
            </mask>
            <use id="Mask" fill="#FFC107" transform="translate(11.604193, 11.982042) rotate(10.000000) translate(-11.604193, -11.982042) " xlink:href="#path-1"></use>
            <path d="M10.7124794,1.79606949 C13.188649,1.48408972 15.5700947,2.07987283 17.5222239,3.32389911 C17.5387218,3.33224081 17.5544782,3.34206549 17.5689371,3.3535585 C17.8219668,3.51687055 18.0677672,3.69074876 18.3052259,3.87537849 C20.3796991,5.48532756 21.8413399,7.88440192 22.2011427,10.6920345 C22.204294,10.7064934 22.2059623,10.7209524 22.2067038,10.7355967 C22.5546428,13.5450829 21.7341962,16.2314827 20.1246303,18.3054159 C19.7038409,18.847256 19.2287381,19.3481291 18.7065514,19.798025 C18.6911658,19.8158207 18.6731849,19.8310211 18.6537211,19.8432556 C17.1880022,21.0898771 15.3571048,21.9388773 13.3082125,22.2013629 C13.2933829,22.2050703 13.2791095,22.2061826 13.2646506,22.2067387 C12.1972914,22.3389084 11.1477277,22.3023902 10.142838,22.1181312 C10.1309744,22.1166483 10.1189253,22.1147946 10.1070617,22.1116433 C8.48025642,21.8070783 6.97153173,21.1156437 5.69470464,20.1246491 C5.615181,20.0631059 5.53695495,20.0004504 5.45928501,19.936312 C5.44723597,19.9281556 5.43555767,19.9187017 5.42480623,19.9077648 C3.49380916,18.3031915 2.14264878,15.9925392 1.79878783,13.3083639 C1.79563654,13.2937196 1.79378284,13.2788899 1.79322674,13.2644309 C1.52907479,11.1306228 1.93892739,9.06762644 2.8566932,7.29028716 C2.86188356,7.2771258 2.86818613,7.26526204 2.87523018,7.2539544 C3.16144113,6.70488483 3.49640434,6.18306484 3.87530018,5.69498241 C5.48912954,3.61548804 7.89597085,2.15124075 10.7124794,1.79606949 Z M18.722864,4.92457961 L18.7432547,4.95794643 C19.1171455,5.57949614 19.4478452,6.2438666 19.6925333,6.85725998 C19.702914,6.88358269 19.7086605,6.91046152 19.7105142,6.93715498 C20.1919195,7.39854395 20.6514512,7.89126066 21.0822506,8.42234921 C20.553576,7.07692488 19.7398026,5.89017831 18.722864,4.92457961 Z M19.1197407,6.84817679 C18.895814,6.31838584 18.6099738,5.75763789 18.2915085,5.22840305 C17.9615503,4.68063109 17.5980401,4.16826503 17.2337885,3.76211668 C16.9427579,3.57693083 16.641532,3.40694542 16.3315937,3.25290193 L13.847824,2.71421316 C13.8279894,2.74720923 13.8001839,2.77612715 13.7655198,2.79855706 C13.5072997,2.96557653 13.2018103,3.21323249 12.9015112,3.4849867 C12.6110367,3.74821384 12.3251965,4.03387089 12.0895915,4.29246375 C12.7747183,5.11032158 13.3087686,5.93874557 13.7621831,6.7714331 C14.38725,6.92529122 15.1207583,7.1482928 15.8462956,7.39594875 C16.5696085,7.64286322 17.2847652,7.91331983 17.8764655,8.16245876 C18.3030014,7.74351979 18.7189712,7.30826816 19.1197407,6.84817679 Z M21.2303611,12.6363932 C21.243337,12.6551157 21.2539031,12.6764334 21.2615032,12.6996048 C21.3810667,13.056259 21.4935862,13.4675978 21.5697732,13.9284306 C21.7677481,12.9441094 21.816315,11.9125186 21.6928587,10.8629467 L21.2303611,12.6363932 Z M21.1339688,15.4443965 C21.1597352,14.9324012 21.1245149,14.4610022 21.0551866,14.0352045 C20.9904926,13.6373978 20.895954,13.2768508 20.7930738,12.9578269 L19.0797008,12.4806814 C18.7250884,13.0262289 18.2657421,13.5864207 17.7730292,14.1019381 C17.2391642,14.6599055 16.6654447,15.1652274 16.1423312,15.5424579 C16.2225963,16.6318845 16.1953469,17.6873883 15.9628932,18.7260232 C16.2678265,18.8719104 16.6270732,19.0011141 17.0130131,19.1054781 C17.4623494,19.2270817 17.9457938,19.31365 18.4199698,19.3527633 C18.8937749,18.9382733 19.3258719,18.4794795 19.7103288,17.9834261 C20.305922,17.2167307 20.7875127,16.3606864 21.1339688,15.4443965 Z M17.8482893,19.8158207 C17.5172189,19.7663265 17.188929,19.6977392 16.8760248,19.6126538 C16.3614383,19.4736254 15.8861501,19.2908494 15.5066982,19.081936 C14.575215,19.4497125 13.5708815,19.7133104 12.491844,19.8705052 L12.4866536,19.8795884 C12.2610586,20.2590433 11.9403689,20.6629671 11.5596193,21.0476124 C11.3382878,21.2717262 11.0965656,21.4895374 10.8414968,21.693075 C11.6144888,21.7850192 12.4108374,21.7850192 13.2181228,21.6832504 L13.2203472,21.6828796 C14.9618964,21.4635855 16.5377249,20.797732 17.8482893,19.8158207 Z M15.7676988,15.1641152 C16.2852513,14.79949 16.8604537,14.297134 17.3945041,13.7384251 C17.8951879,13.2149368 18.3599099,12.6425105 18.7056246,12.0902896 C18.5221085,10.8818546 18.2242193,9.75294385 17.8104739,8.70504033 C17.1998658,8.44329616 16.4411473,8.15374631 15.677053,7.89311437 C14.9924824,7.65954663 14.3027214,7.44840881 13.7108357,7.29955572 C12.9810348,8.04808471 12.2973911,8.84814691 11.6550848,9.69492265 L12.8991014,14.3379157 C13.8832296,14.6982773 14.8219422,14.9045955 15.7676988,15.1641152 Z M11.5586925,4.09986305 C11.5625852,4.09467265 11.566478,4.08966763 11.5707415,4.0846626 C11.8367471,3.78083917 12.1893205,3.42196048 12.5498647,3.09552176 C12.8205046,2.85083175 13.0955934,2.623752 13.3438035,2.44950305 L13.2184935,2.3145528 C12.4260377,2.2153792 11.6083716,2.212784 10.7797686,2.317148 C9.01597511,2.53977884 7.42198031,3.21972048 6.10177669,4.22257879 L6.0630344,4.39126661 C6.39985131,4.4125843 6.79227914,4.46726881 7.17951663,4.55198346 C7.60623788,4.64503981 8.03147617,4.77498504 8.37682008,4.93551652 C8.38442024,4.93866783 8.39146429,4.94274599 8.39869372,4.94626805 C9.42527159,4.58924307 10.4807672,4.31341069 11.5586925,4.09986305 Z M3.34866462,7.4806634 C3.22928647,8.0378893 3.13938213,8.64942896 3.1180646,9.27969112 C3.09767392,9.87862554 3.13882602,10.4966532 3.27470207,11.1037439 C3.83767011,11.2963446 4.40119426,11.4622519 4.9654599,11.6077683 C5.34324352,11.0494302 5.80907779,10.4629156 6.30197606,9.91254847 C6.80692336,9.34846384 7.34282741,8.82071197 7.84276973,8.39806558 C7.75175316,7.29529218 7.8214522,6.2844629 8.04500816,5.36298256 C7.75620203,5.24174978 7.41363867,5.1410932 7.06792402,5.06583249 C6.6250756,4.96869796 6.18315402,4.91345734 5.84318584,4.90678398 C5.81019001,4.90641323 5.77886252,4.89992524 5.7501302,4.88843223 L3.87715388,6.58902782 C3.68566689,6.87635322 3.50900948,7.17368866 3.34866462,7.4806634 Z M2.81109223,11.4020062 C2.80441892,11.3871765 2.79885783,11.3716054 2.79496506,11.3552927 C2.63443483,10.7040836 2.57808241,10.0424937 2.58994608,9.40092389 C2.25609509,10.6073198 2.15061968,11.8991719 2.31689638,13.2192003 L2.31708175,13.2203126 C2.32616487,13.292422 2.33598947,13.3636045 2.34674092,13.4353432 C2.45777742,12.7376059 2.61626859,12.0617424 2.81109223,11.4020062 Z M4.32204137,17.2528781 C4.31462657,17.2209943 4.31332899,17.1894812 4.31685101,17.1590803 L3.03223839,15.8568475 C3.44338858,16.8148459 4.00172237,17.6879444 4.67498544,18.4513031 C4.5200163,18.0358862 4.41287256,17.6369673 4.32204137,17.2528781 Z M4.85701857,17.2324873 C4.94154719,17.5804291 5.04220299,17.9400493 5.18438161,18.3130162 C5.33471651,18.70693 5.53250607,19.1171565 5.80852169,19.5449933 C5.87692314,19.60079 5.94606607,19.656216 6.01613585,19.7105298 C7.20435618,20.6325663 8.60463955,21.2817363 10.1146618,21.578701 C10.5026408,21.3106542 10.8678193,21.0005281 11.1859138,20.6789091 C11.5101256,20.3517289 11.7855851,20.0113873 11.9874528,19.6890267 C11.3533027,18.9338244 10.7462167,18.1137421 10.2371913,17.2057938 C9.61861228,17.1416554 8.90345564,16.98168 8.19330399,16.7605322 C7.46906424,16.5353061 6.74723429,16.2455709 6.13551399,15.9291422 L4.85701857,17.2324873 Z M12.3934126,14.4860273 L11.1460593,9.8311705 C10.1886244,9.42817346 9.20153026,9.08560745 8.18941123,8.79309166 C7.70800589,9.19905463 7.18785827,9.71160606 6.69421853,10.2634562 C6.19779824,10.8177161 5.73029564,11.4092357 5.35862921,11.9668324 C5.34620944,11.9857402 5.33175059,12.0024236 5.31543805,12.0168826 C5.47763662,13.1298514 5.78071622,14.254684 6.22245242,15.3919364 C6.24488216,15.3969415 6.26694117,15.4049124 6.28807332,15.4162201 C6.89200809,15.7365415 7.61902839,16.0312818 8.34864387,16.2587323 C9.02023861,16.467831 9.6927602,16.6192793 10.2712993,16.6811933 C11.0266812,15.9393377 11.7535161,15.2912799 12.3934126,14.4860273 L12.3934126,14.4860273 Z" id="Fill-41" fill="#505050" mask="url(#mask-2)"></path>
        </g>
    </g>
</svg>