<svg id="Layer_1" data-name="Layer 1" xmlns="http://www.w3.org/2000/svg" viewBox="0 0 24 24"><defs><style>.cls-1,.cls-2{fill:#aad1e6;}.cls-2{fill-rule:evenodd;}</style></defs><path class="cls-1" d="M11.89,23.41A11.41,11.41,0,1,1,23.3,12,11.42,11.42,0,0,1,11.89,23.41Zm0-21.82A10.41,10.41,0,1,0,22.3,12,10.42,10.42,0,0,0,11.89,1.59Z"/><path class="cls-2" d="M13.93,4.91a.65.65,0,1,1,0,1.29h-.06l-1.1,1.47a1.24,1.24,0,0,1,.47.55H10.46a2.2,2.2,0,0,1,.24-.38L8.94,6.18l-.16,0a.65.65,0,1,1,.64-.65.7.7,0,0,1-.05.25l1.8,1.67a1.32,1.32,0,0,1,.68-.18.81.81,0,0,1,.39.1L13.39,5.9a.68.68,0,0,1-.1-.35A.64.64,0,0,1,13.93,4.91Zm-1,4.72h-4a2.31,2.31,0,0,0-2.33,2.3V15a2.32,2.32,0,0,0,2.33,2.31h4A2.32,2.32,0,0,0,15.23,15V11.93A2.31,2.31,0,0,0,12.9,9.63Zm4.41-1a1.13,1.13,0,0,1,1.14,1.12v7.49a1.13,1.13,0,0,1-1.14,1.12h-.43c0,.3-.24.72-.53.72h-1c-.29,0-.53-.42-.54-.72H9.37c0,.3-.25.72-.53.72h-1c-.29,0-.52-.42-.53-.72H6.69a1.13,1.13,0,0,1-1.14-1.12V9.76A1.13,1.13,0,0,1,6.69,8.64Z"/></svg>