<?xml version="1.0" encoding="utf-8"?>
<!-- Generator: Adobe Illustrator 24.3.0, SVG Export Plug-In . SVG Version: 6.00 Build 0)  -->
<svg version="1.1" id="Layer_1" xmlns="http://www.w3.org/2000/svg" xmlns:xlink="http://www.w3.org/1999/xlink" x="0px" y="0px"
	 viewBox="0 0 200 200" style="enable-background:new 0 0 200 200;" xml:space="preserve">
<style type="text/css">
	.st0{fill-rule:evenodd;clip-rule:evenodd;fill:#FFFFFF;}
	.st1{fill-rule:evenodd;clip-rule:evenodd;fill:#03A9F4;}
	.st2{fill-rule:evenodd;clip-rule:evenodd;fill:#7F97AB;}
	.st3{clip-path:url(#SVGID_2_);enable-background:new    ;}
	.st4{clip-path:url(#SVGID_4_);}
	.st5{clip-path:url(#SVGID_6_);}
	.st6{clip-path:url(#SVGID_8_);fill:#FFFFFF;}
	.st7{clip-path:url(#SVGID_10_);}
	.st8{clip-path:url(#SVGID_12_);fill:#FFFFFF;}
	.st9{clip-path:url(#SVGID_14_);enable-background:new    ;}
	.st10{clip-path:url(#SVGID_16_);}
	.st11{clip-path:url(#SVGID_18_);}
	.st12{clip-path:url(#SVGID_20_);fill:#03A9F4;}
	.st13{clip-path:url(#SVGID_22_);}
	.st14{clip-path:url(#SVGID_24_);fill:#03A9F4;}
	.st15{clip-path:url(#SVGID_26_);enable-background:new    ;}
	.st16{clip-path:url(#SVGID_28_);}
	.st17{clip-path:url(#SVGID_30_);}
	.st18{clip-path:url(#SVGID_32_);fill:#7F97AB;}
	.st19{clip-path:url(#SVGID_34_);}
	.st20{clip-path:url(#SVGID_36_);fill:#7F97AB;}
</style>
<path class="st2" d="M171.4,61c4.4,0,8.9,0.2,13.3,0.6c-7.3-16.2-19-29.7-33.5-39.2c0.1,12.9,2.2,26.1,6.3,39.3
	C162.4,61.2,167,61,171.4,61z M155.6,67.8l-2.4,0.2l-0.7-2.3c-5.3-16.3-7.8-32.9-7.2-48.8l0.2-5l4.3,2.5
	c18,10.4,32.3,26.3,40.9,45.7c0.5,1.2,1,2.3,1.6,3.9l1.8,4.7l-5-0.6c-5.9-0.7-11.8-1.1-17.7-1.1C166.5,67,161.3,67.3,155.6,67.8z
	 M163.7,78.6c6.8,15.5,16.1,29.7,27.1,41.4c3.2-14.4,2.9-29.3-0.9-43.7l-0.3,0c-8.5-1.2-17.6-1.5-27.2-0.9
	C162.8,76.4,163.3,77.5,163.7,78.6z M155.2,73.7l-1.4-3.7l4-0.3c11.5-1,22.4-0.8,32.6,0.6l0.6,0.1l1.6,0.2l2,0.3l0.5,1.9
	c5.1,17.8,5.1,36.4,0.2,54l-1.4,4.9l-3.6-3.6c-13.1-12.9-24.2-29.1-32.1-47.1C157.2,78.7,156.3,76.4,155.2,73.7z M143.3,63.3
	c-4.7-16.3-6.8-32.7-6.1-48.4l0-0.1c-20.4-8.9-43.4-10.3-64.8-3.6c18.5,14,35.1,33.7,48.2,57.2C128.2,66.2,135.8,64.6,143.3,63.3z
	 M120,74.8l-2.3,0.7l-1.2-2.1c-14-25.6-32.1-46.7-52.2-60.6l-4.7-3.2l5.3-2c25.1-9.5,52.6-8.4,76.7,2.7l1.8,0.8l-0.1,2l-0.1,2.2
	c-0.7,16.1,1.6,33.1,6.8,49.7l1.1,3.4l-3.5,0.5C138.5,70.1,129.2,72.1,120,74.8z M90.8,79c5.3-2.3,10.7-4.5,16.2-6.4
	C93.5,49.4,76.5,30.4,58,18.1l-0.9-0.6c-16.5,8.6-29.8,21.7-38.5,37.7c25,1.5,46.8,11.9,61.1,29.1C83.3,82.4,87.1,80.7,90.8,79z
	 M80.2,90.8L78,91.9l-1.5-2C62.5,71.9,39.8,61.4,13.7,61l-4.7-0.1l2.1-4.2c9.5-19.6,25.1-35.5,44.9-45.3l1.5-0.7l1.4,0.9l1.1,0.7
	l1.3,0.8C81.5,26.5,99.8,47.4,114,72.9l1.8,3.2l-3.4,1.1c-6.5,2.2-12.9,4.6-19.1,7.4C88.9,86.5,84.5,88.5,80.2,90.8z M133.2,186.9
	c0.3-2,0.3-2.7,0.4-2.9c3.2-27.6-2.5-59.7-16-90.4c-1.2-2.7-2.5-5.5-3.9-8.3c-6.2,2.1-11.8,4.3-17.2,6.6c-3,1.3-6,2.7-8.9,4.1
	c15.5,28.4,10.6,64.6-12.1,93.7C94.3,194.9,114.5,194,133.2,186.9z M69.3,194.1l-4.3-1.4l2.9-3.4c23.7-27.9,29.2-63.4,14.1-90.8
	c-0.2-0.4-0.4-0.7-0.9-1.4c-0.2-0.4-0.2-0.4-0.5-0.8l-1.7-2.8l2.9-1.5c3.9-2,8-3.9,12-5.7c6.3-2.8,13-5.3,20.2-7.7l2.4-0.8l1.2,2.3
	c1.9,3.7,3.6,7.3,5.2,10.9c13.9,31.6,19.8,64.8,16.5,93.5c0,0.3-0.2,1.4-0.6,4.8l-0.2,1.7l-1.6,0.7
	C115.2,200.6,91.3,201.3,69.3,194.1z M130.4,87.9c13.5,30.8,19.7,63.1,17.7,91.7c17.3-10.4,30.5-26,38.1-44.5
	c-0.1-0.1-0.1-0.1-0.2-0.2c-14.3-13.6-26.4-31.2-35-50.7c-1-2.3-2-4.8-3-7.4c-6.9,1-13.8,2.4-20.7,4.3
	C128.4,83.5,129.4,85.7,130.4,87.9z M120.2,80.5l-1.6-3.2l3.5-1c9.1-2.6,18.3-4.5,27.4-5.7l2.4-0.3l0.8,2.3c1.2,3.4,2.5,6.4,3.7,9.3
	c8.3,18.8,20,35.8,33.8,49c0.5,0.6,0.5,0.6,1.6,1.8l1.2,1.4l-0.7,1.7c-8.6,22.3-24.9,40.8-46.5,52.1l-5,2.6l0.6-5.6
	c3.3-28.9-2.6-62.5-16.7-94.4C123.5,87.2,122,84,120.2,80.5z M14.5,136.5c13.1-17.1,31.2-32.7,52.6-45.3C54.2,77.1,34.6,69,12.4,69
	C4.6,90.8,5.2,114.8,14.5,136.5z M7.5,64.9L8.2,63h4.1c25.4,0,47.8,9.9,61.7,27.2l2.2,2.8l-3.1,1.7c-23.8,13.5-43.5,30.6-56.8,49.5
	l-2.9,4.1l-2.2-4.5c-0.8-1.6-1.3-2.7-1.8-3.8C-1.2,115.8-1.7,89,7.5,64.9z M75.2,102.6c-22.5,13-40.9,29.4-53.3,47.3l-0.2,0.3
	c9.7,15.1,23.5,27,39.7,34.4C83.3,159.3,88.6,127.2,75.2,102.6z M64.5,190.3l-1.4,1.6l-1.9-0.8c-18.8-8-34.7-21.7-45.5-39.3l-1-1.7
	l1.1-1.6l1.3-1.9c13.4-19.4,33.4-36.9,57.8-50.6l2.5-1.4l1.5,2.5l0.3,0.5l0,0.1c0.6,0.9,0.8,1.3,1.1,1.9c14.9,27,9.1,62.1-14.6,89.4
	C65.4,189.3,65.4,189.3,64.5,190.3z"/>
</svg>
