<?xml version="1.0" encoding="utf-8"?>
<!-- Generator: Adobe Illustrator 24.3.0, SVG Export Plug-In . SVG Version: 6.00 Build 0)  -->
<svg version="1.1" id="Layer_1" xmlns="http://www.w3.org/2000/svg" xmlns:xlink="http://www.w3.org/1999/xlink" x="0px" y="0px"
	 viewBox="0 0 200 200" style="enable-background:new 0 0 200 200;" xml:space="preserve">
<style type="text/css">
	.st0{fill-rule:evenodd;clip-rule:evenodd;fill:#FFFFFF;}
	.st1{fill-rule:evenodd;clip-rule:evenodd;fill:#03A9F4;}
	.st2{fill-rule:evenodd;clip-rule:evenodd;fill:#7F97AB;}
	.st3{clip-path:url(#SVGID_2_);enable-background:new    ;}
	.st4{clip-path:url(#SVGID_4_);}
	.st5{clip-path:url(#SVGID_6_);}
	.st6{clip-path:url(#SVGID_8_);fill:#FFFFFF;}
	.st7{clip-path:url(#SVGID_10_);}
	.st8{clip-path:url(#SVGID_12_);fill:#FFFFFF;}
	.st9{clip-path:url(#SVGID_14_);enable-background:new    ;}
	.st10{clip-path:url(#SVGID_16_);}
	.st11{clip-path:url(#SVGID_18_);}
	.st12{clip-path:url(#SVGID_20_);fill:#03A9F4;}
	.st13{clip-path:url(#SVGID_22_);}
	.st14{clip-path:url(#SVGID_24_);fill:#03A9F4;}
	.st15{clip-path:url(#SVGID_26_);enable-background:new    ;}
	.st16{clip-path:url(#SVGID_28_);}
	.st17{clip-path:url(#SVGID_30_);}
	.st18{clip-path:url(#SVGID_32_);fill:#7F97AB;}
	.st19{clip-path:url(#SVGID_34_);}
	.st20{clip-path:url(#SVGID_36_);fill:#7F97AB;}
</style>
<path class="st2" d="M194.9,128L194.9,128c0,0.3,0,0.6-0.1,0.9c-4.7,15.4-13.1,29.5-24.7,41.1c-11.6,11.6-25.7,20-41.1,24.7
	l-5.7,1.7l2-5.6c1.6-4.5,1.9-10.1,0.8-16.3c-1.4-7.7-4.9-15.6-9.5-21.6c-0.5-0.6-2.3-2.8-2.9-3.4c-11.9-12.6-24.4-17.5-54.1-24
	c-29.9-6.6-42.8-11.4-55.6-24.2c-0.2-0.2-0.5-0.4-0.8-0.5l-2-0.7l0-2.1c0.6-25.3,10.7-49.5,29-67.7C48.3,11.7,72.5,1.6,97.8,1l2.1,0
	l0.7,2c0.1,0.3,0.3,0.6,0.5,0.8c11.7,11.7,17.4,25.3,22.8,49c0.4,1.8,0.7,3.3,1.5,6.6c6.6,29.8,11.4,42.2,24,54.1
	c0.8,0.8,2.5,2.3,3.4,2.9c6,4.6,13.9,8.1,21.6,9.5c6.3,1.2,11.8,0.9,16.4-0.7c0.3-0.1,0.6-0.2,1-0.2c0.3,0,0.6,0,0.9,0.1
	c0.5,0.1,0.9,0.4,1.2,0.7c0.3,0.3,0.6,0.7,0.7,1.1C194.8,127.4,194.9,127.7,194.9,128z M173.4,131.9c-8.6-1.6-17.4-5.5-24.2-10.6
	c-1.1-0.8-3.1-2.5-4-3.4c-13.8-13-18.9-26.2-25.7-57.2c-0.7-3.3-1-4.7-1.5-6.5C113,31.5,107.6,18.7,97,8c-0.3-0.3-0.6-0.6-0.8-0.9
	C73,8.1,51,17.5,34.3,34.3C17.6,51,8.1,73,7.2,96.1c0.3,0.2,0.6,0.5,0.9,0.8c11.7,11.7,23.8,16.3,52.6,22.6
	c30.9,6.8,44.2,11.9,57.2,25.7c0.8,0.8,2.8,3.2,3.4,4c5.2,6.7,9,15.5,10.6,24.2c0.9,5,1.1,9.6,0.4,13.9
	c12.5-4.6,23.9-11.9,33.5-21.5c9.6-9.6,16.9-21,21.5-33.5C183.1,132.9,178.4,132.8,173.4,131.9z M117.7,195.5l-0.4,2l-2,0.3
	c-31,4.8-62.5-5.3-85.1-27.8c-15.9-15.9-25.6-36.3-28.3-58.1l-0.9-7.3l5.7,4.6c12.7,10.1,24.5,14.2,51.9,20.3l1.4,0.3
	c27.1,6,39,10.5,50,21.9c1.4,1.4,2,2.1,3.1,3.5c9.5,12.2,13,31.4,5.2,39.3C118,194.7,117.8,195.1,117.7,195.5z M108.3,158.9
	c-0.9-1.2-1.4-1.7-2.6-2.9c-9.9-10.3-21-14.5-47-20.3l-1.4-0.3c-24.1-5.3-36.7-9.3-48.3-17c3.5,17.8,12.2,34.3,25.4,47.5
	c20.8,20.8,49.7,30.2,78.3,26.4c0.4-0.7,0.9-1.4,1.4-2C119.1,185.1,116.2,169,108.3,158.9z M109,3.3c0.6-1.1,1.8-1.7,3-1.5
	c21.8,2.6,42.2,12.4,58.1,28.3c22.6,22.6,32.6,54.1,27.8,85.1l-0.3,2.1l-2,0.4c-0.4,0.1-0.8,0.3-1.1,0.5c-7.8,7.8-27,4.3-39.3-5.3
	c-0.5-0.5-0.8-0.7-1.1-0.9c-1.1-0.9-1.7-1.4-2.2-1.9l-0.1-0.1c-11.4-11-15.9-22.9-21.9-50l-0.3-1.5c-6-27.3-10.2-39.2-20.2-51.9
	C108.5,5.6,108.5,4.3,109,3.3z M135.4,57.2l0.3,1.5c5.7,26,10,37,20.2,46.9l0.2,0.2c0.4,0.4,0.8,0.8,1.8,1.6
	c0.4,0.3,0.7,0.5,1.1,0.9c10.1,7.9,26.2,10.8,31.3,5.6c0.6-0.6,1.2-1,2-1.4c3.8-28.6-5.6-57.4-26.4-78.2
	c-13.2-13.2-29.6-21.9-47.4-25.4C126.2,20.5,130.1,33.1,135.4,57.2z"/>
</svg>
