<svg id="Layer_1" data-name="Layer 1" xmlns="http://www.w3.org/2000/svg" viewBox="0 0 24 24"><defs><style>.cls-1{fill:#aad1e6;}</style></defs><path class="cls-1" d="M11.89,23.41A11.41,11.41,0,1,1,23.3,12,11.42,11.42,0,0,1,11.89,23.41Zm0-21.82A10.41,10.41,0,1,0,22.3,12,10.42,10.42,0,0,0,11.89,1.59Z"/><path class="cls-1" d="M18.15,18.4l-1.29-7.21h0l-1-5.58H7.93l-.85,5.25h0L5.85,18.4h12.3Zm-4.36-11H10.1l.09-1H13.7Zm-5.18-1h.78L9.22,8.18h5.44L14.5,6.41h.7l.71,4h-1.8a2.36,2.36,0,0,0-2.11-1,2.36,2.36,0,0,0-2.11,1H8ZM13.49,11l0,.14c-.11.42-.73.74-1.45.74s-1.34-.32-1.46-.74l0-.13,0-.14c.11-.42.73-.73,1.45-.73s1.34.31,1.45.73Zm-5.73.64H9.89a2.36,2.36,0,0,0,2.11,1,2.37,2.37,0,0,0,2.11-1h2l1.05,5.94H15.54l-.24-2.31H8.69L8.46,17.6H6.79Zm7,5.94H9.26l.15-1.51h5.17Z"/></svg>