<svg xmlns="http://www.w3.org/2000/svg" width="75" height="73" viewBox="0 0 75 73">
  <g fill="#03A9F4" fillRule="evenodd">
    <path d="M56.384 45.304l-2.741-1.067L69 28.661l-21.716-3.704L37 5.743 26.716 24.957 5 28.661 20.36 44.24l-3.137 21.503L37 56.157l3.534 1.713 1.512 3.846-4.955-2.436-22.923 11.272 3.636-25.285L0 26.948l25.17-4.355L37.092 0l11.92 22.593 25.171 4.355L56.38 45.267l.005.037z"/>
    <g fillRule="nonzero">
      <path d="M40.01 37.396a.993.993 0 0 1-.997-.99V28.49c0-.547.446-.99.997-.99.55 0 .997.443.997.99v7.916c0 .547-.447.99-.997.99zM32.035 45.313H24.06a.993.993 0 0 1-.997-.99c0-.547.446-.99.997-.99h7.975c.55 0 .997.443.997.99 0 .546-.447.99-.997.99zM34.372 39.715a1 1 0 0 1-.706-.289l-5.64-5.593a.99.99 0 0 1 0-1.407 1.008 1.008 0 0 1 1.417 0l5.632 5.6a.984.984 0 0 1 .002 1.399 1 1 0 0 1-.707.29h.002zM28.731 56.509a.993.993 0 0 1-.998-.988c0-.264.104-.516.292-.703l5.64-5.599a1.002 1.002 0 0 1 1.41.025.984.984 0 0 1 0 1.375l-5.632 5.6a1 1 0 0 1-.712.29zM45.648 39.715a.993.993 0 0 1-.998-.987c0-.264.105-.517.293-.703l5.634-5.599a1.002 1.002 0 0 1 1.41.024.984.984 0 0 1 0 1.375l-5.633 5.6a1 1 0 0 1-.706.29z"/>
    </g>
    <path fillRule="nonzero" d="M67.64 66.847l-7.295-7.295 5.205-3.007a1.226 1.226 0 0 0-.159-2.2l-23.21-9.258a1.226 1.226 0 0 0-1.594 1.593l9.258 23.211a1.226 1.226 0 0 0 2.2.159l3.006-5.205 7.296 7.296a1.225 1.225 0 0 0 1.734 0l3.56-3.56a1.226 1.226 0 0 0 0-1.734zm-4.426 2.694l-7.558-7.559a1.226 1.226 0 0 0-1.929.254l-2.54 4.4-7.265-18.214 18.213 7.265-4.4 2.54a1.225 1.225 0 0 0-.253 1.93l7.558 7.557-1.826 1.827z"/>
    <path d="M42.15 46.442L65.04 55l-6.548 4.42 8.208 8.75-3.521 3.294-8.698-8.033-2.731 5.71z"/>
  </g>
</svg>
